<?xml version="1.0" encoding="UTF-8"?>
<svg width="22px" height="22px" viewBox="0 0 22 22" version="1.1" xmlns="http://www.w3.org/2000/svg" xmlns:xlink="http://www.w3.org/1999/xlink">
    <!-- Generator: Sketch 51.3 (57544) - http://www.bohemiancoding.com/sketch -->
    <title>multi-collateral-dai-dai-logo</title>
    <desc>Created with Sketch.</desc>
    <defs></defs>
    <g id="01_SWAP" stroke="none" stroke-width="1" fill="none" fill-rule="evenodd">
        <g id="01_SWAP_13B" transform="translate(-836.000000, -645.000000)" fill-rule="nonzero">
            <g id="CARD" transform="translate(520.000000, 32.000000)">
                <g id="MID" transform="translate(0.000000, 138.000000)">
                    <g id="SWAP" transform="translate(0.000000, 422.000000)">
                        <g id="Group-14">
                            <g id="Group-10">
                                <g id="Group-6" transform="translate(0.000000, 31.000000)">
                                    <g id="Group" transform="translate(22.000000, 17.000000)">
                                        <g id="Group-8" transform="translate(294.000000, 0.000000)">
                                            <g id="Group-2">
                                                <g id="multi-collateral-dai-dai-logo" transform="translate(-0.000000, 5.000000)">
                                                    <path d="M10.9861573,0 C17.0542022,0 21.9723146,4.91910112 21.9723146,10.9861573 C21.9723146,17.0542022 17.0542022,21.9723146 10.9861573,21.9723146 C4.91910112,21.9723146 0,17.0537079 0,10.9861573 C0,4.91910112 4.91910112,0 10.9861573,0 Z" id="Shape" fill="#F5AC37"></path>
                                                    <path d="M11.3910562,11.7618427 L15.565618,11.7618427 C15.6546067,11.7618427 15.6966292,11.7618427 15.7030562,11.6451685 C15.7371685,11.2204944 15.7371685,10.7933483 15.7030562,10.3681798 C15.7030562,10.285618 15.6620225,10.2515056 15.5725393,10.2515056 L7.26444944,10.2515056 C7.16161798,10.2515056 7.13393258,10.285618 7.13393258,10.3820225 L7.13393258,11.6041348 C7.13393258,11.7618427 7.13393258,11.7618427 7.2985618,11.7618427 L11.3910562,11.7618427 Z M15.2368539,8.82323596 C15.2487191,8.79208989 15.2487191,8.75797753 15.2368539,8.72732584 C15.1671461,8.57555056 15.0845843,8.43069663 14.9886742,8.29474157 C14.8443146,8.06238202 14.6742472,7.84831461 14.4804494,7.656 C14.3889888,7.53982022 14.283191,7.43550562 14.1645393,7.34701124 C13.5702921,6.84125843 12.8638202,6.48332584 12.1044494,6.30337079 C11.7213034,6.21734831 11.3297528,6.17631461 10.9372135,6.17977528 L7.25011236,6.17977528 C7.1472809,6.17977528 7.1334382,6.22080899 7.1334382,6.31029213 L7.1334382,8.74759551 C7.1334382,8.85042697 7.1334382,8.87811236 7.26395506,8.87811236 L15.1874157,8.87811236 C15.1874157,8.87811236 15.2561348,8.86426966 15.2699775,8.82323596 L15.2363596,8.82323596 L15.2368539,8.82323596 Z M15.2368539,13.1901124 C15.1201798,13.1772584 15.0025169,13.1772584 14.8858427,13.1901124 L7.27137079,13.1901124 C7.16853933,13.1901124 7.13393258,13.1901124 7.13393258,13.3275506 L7.13393258,15.7104719 C7.13393258,15.8202247 7.13393258,15.8479101 7.27137079,15.8479101 L10.7869213,15.8479101 C10.9550112,15.860764 11.1231011,15.8488989 11.2877303,15.8137978 C11.7979326,15.7772135 12.2997303,15.6664719 12.7782921,15.4840449 C12.9523146,15.4237303 13.1204045,15.3451236 13.2791011,15.2506966 L13.3270562,15.2506966 C14.151191,14.8220674 14.8205843,14.1487191 15.2427865,13.3221124 C15.2427865,13.3221124 15.2907416,13.2182921 15.2368539,13.1911011 L15.2368539,13.1901124 Z M5.75411236,17.0833708 L5.75411236,17.0423371 L5.75411236,15.4425169 L5.75411236,14.9001798 L5.75411236,13.2865169 C5.75411236,13.1970337 5.75411236,13.1836854 5.64435955,13.1836854 L4.15429213,13.1836854 C4.07173034,13.1836854 4.03761798,13.1836854 4.03761798,13.0739326 L4.03761798,11.7692584 L5.63051685,11.7692584 C5.71950562,11.7692584 5.75411236,11.7692584 5.75411236,11.6525843 L5.75411236,10.3617528 C5.75411236,10.279191 5.75411236,10.2589213 5.64435955,10.2589213 L4.15429213,10.2589213 C4.07173034,10.2589213 4.03761798,10.2589213 4.03761798,10.1491685 L4.03761798,8.94089888 C4.03761798,8.86525843 4.03761798,8.84498876 4.14737079,8.84498876 L5.62359551,8.84498876 C5.72642697,8.84498876 5.75411236,8.84498876 5.75411236,8.71447191 L5.75411236,5.01352809 C5.75411236,4.90377528 5.75411236,4.87608989 5.89155056,4.87608989 L11.0410337,4.87608989 C11.4147865,4.89092135 11.7860674,4.93195506 12.1533933,4.99968539 C12.9102921,5.13959551 13.6375281,5.41002247 14.3024719,5.79613483 C14.7434607,6.05568539 15.1493483,6.3691236 15.5107416,6.73002247 C15.7826517,7.01231461 16.0278652,7.3178427 16.2453933,7.64314607 C16.4614382,7.97289888 16.6408989,8.32539326 16.7817978,8.69370787 C16.7991011,8.78961798 16.8910562,8.85438202 16.9869663,8.83806742 L18.216,8.83806742 C18.3737079,8.83806742 18.3737079,8.83806742 18.3806292,8.98934831 L18.3806292,10.1155506 C18.3806292,10.2253034 18.3395955,10.2529888 18.2293483,10.2529888 L17.281618,10.2529888 C17.1857079,10.2529888 17.1580225,10.2529888 17.1649438,10.3765843 C17.2025169,10.7948315 17.2025169,11.2145618 17.1649438,11.632809 C17.1649438,11.7494831 17.1649438,11.7633258 17.2959551,11.7633258 L18.3801348,11.7633258 C18.4280899,11.8251236 18.3801348,11.8869213 18.3801348,11.9492135 C18.3870562,12.028809 18.3870562,12.1093933 18.3801348,12.1889888 L18.3801348,13.0200449 C18.3801348,13.1367191 18.3460225,13.1713258 18.2426966,13.1713258 L16.9449438,13.1713258 C16.8544719,13.1540225 16.7664719,13.2118652 16.7457079,13.3018427 C16.4367191,14.1052135 15.9423371,14.8255281 15.3035955,15.4029663 C15.0702472,15.6130787 14.8250337,15.8108315 14.5689438,15.9932584 C14.2940674,16.1514607 14.0266067,16.3160899 13.744809,16.4466067 C13.2262022,16.6799551 12.682382,16.852 12.1242247,16.9612584 C11.5942472,17.0561798 11.0568539,17.099191 10.5174831,17.0917753 L5.75213483,17.0917753 L5.75213483,17.0848539 L5.75411236,17.0833708 Z" id="Shape" fill="#FEFEFD"></path>
                                                </g>
                                            </g>
                                        </g>
                                    </g>
                                </g>
                            </g>
                        </g>
                    </g>
                </g>
            </g>
        </g>
    </g>
</svg>