<svg xmlns="http://www.w3.org/2000/svg" xmlns:xlink="http://www.w3.org/1999/xlink" width="30" height="30" viewBox="0 0 30 30"><defs><path id="4yeva" d="M873 353c0-8.284 6.716-15 15-15 8.284 0 15 6.716 15 15 0 8.284-6.716 15-15 15-8.284 0-15-6.716-15-15z"/><path id="4yevb" d="M885 348a1 1 0 0 1 1-1h5.38a1 1 0 0 1 1 1v10.5a1 1 0 0 1-1 1H886a1 1 0 0 1-1-1z"/><path id="4yevc" d="M892.7 345h-12.9a.8.8 0 0 0-.8.8v13.19a.8.8 0 0 0 .8.8h6.945v-5.905h-1.89v-2.189h1.89v-1.613c0-1.873 1.144-2.893 2.815-2.893.8 0 1.487.06 1.688.086v1.957h-1.159c-.908 0-1.084.433-1.084 1.066v1.397h2.167l-.282 2.189h-1.885v5.905h3.695a.8.8 0 0 0 .8-.8V345.8a.8.8 0 0 0-.8-.8z"/></defs><g><g transform="translate(-873 -338)"><use fill="#4965c9" xlink:href="#4yeva"/></g><g transform="translate(-873 -338)"><use fill="#fff" xlink:href="#4yevb"/></g><g transform="translate(-873 -338)"><use fill="#4965c9" xlink:href="#4yevc"/></g></g></svg>