<?xml version="1.0" encoding="UTF-8"?>
<svg width="29px" height="52px" viewBox="0 0 29 52" version="1.1" xmlns="http://www.w3.org/2000/svg" xmlns:xlink="http://www.w3.org/1999/xlink">
    <!-- Generator: Sketch 51.3 (57544) - http://www.bohemiancoding.com/sketch -->
    <title>Group 2</title>
    <desc>Created with Sketch.</desc>
    <defs></defs>
    <g id="FULL-FLOW" stroke="none" stroke-width="1" fill="none" fill-rule="evenodd">
        <g id="01_HOME_01" transform="translate(-915.000000, -777.000000)" fill-rule="nonzero">
            <g id="3-ADVANTAGES" transform="translate(235.000000, 777.000000)">
                <g id="1" transform="translate(680.000000, 0.000000)">
                    <g id="Group-2">
                        <path d="M14.3955975,6.88399614 C12.9918071,6.88399614 11.6240904,7.10154677 10.3387862,7.52081275 L9.93468579,7.65263024 L9.54123048,7.4918013 C8.34046785,7.00097712 7.35927199,6.50973857 6.6116971,5.98697098 C6.51667387,6.49809958 6.47304226,6.99615069 6.49421811,7.45908159 C6.49662973,7.51180269 6.49988712,7.56385869 6.50399656,7.61522665 L6.60731974,8.90676443 L5.31231508,8.86543116 C4.34200079,8.83446118 3.43182131,8.64002806 2.60259597,8.26700195 C2.72350201,9.22193153 2.98656963,10.2242732 3.44135813,11.1913864 C3.54013926,11.4014457 3.64707092,11.6065596 3.76238177,11.8064062 L4.07578936,12.3495765 L4.01645728,12.4666653 L5.08841378,13.4984525 C5.81823108,14.2009215 6.68096324,14.7784661 7.6078249,15.23644 C8.22207116,15.5399467 8.76860556,15.746164 9.16608097,15.8626139 C9.27687778,15.8950705 9.58076324,15.9589559 9.96127225,16.0217011 C10.4924994,16.1092995 11.1156327,16.1870766 11.8069006,16.245967 C13.6615058,16.4039643 15.7412396,16.4078136 17.9763875,16.2043685 C20.6355182,15.9624303 22.5695899,15.1848698 23.9151284,14.0826631 L25.0979647,13.1137349 C23.3610511,9.46923806 19.2393626,6.88399614 14.3955975,6.88399614 Z M14.3955975,4.56716446 C22.0425761,4.56716446 28.2955662,10.0875442 28.2955662,16.9743124 C28.2955662,19.6165109 27.368261,22.1328169 25.6788514,24.2248695 L23.6191877,26.7754201 L23.6191877,17.0315335 C22.1475552,17.796846 20.3451541,18.3152502 18.1863572,18.511666 C14.0003795,18.8926774 10.1481804,18.5645013 8.51472657,18.0860002 C7.99531528,17.9338263 7.32488312,17.6808601 6.58150109,17.3135458 C6.09687376,17.0740854 5.62513525,16.8067138 5.17200725,16.5096325 L5.17200725,26.7754201 L3.11234355,24.2248695 C1.42293396,22.1328169 0.495628733,19.6165109 0.495628733,16.9743124 C0.495628733,15.3939749 0.827037827,13.8544134 1.46181104,12.4183715 C1.42180861,12.3385292 1.38279983,12.2581718 1.3447753,12.1773121 C0.37164495,10.1079388 0.10979727,7.9748939 0.231436133,6.16793069 C0.240634392,6.0312892 0.250407874,5.92995064 0.258107891,5.86738403 L0.560223808,3.41253643 L2.25262278,5.2162372 C2.80509634,5.80504457 3.45935278,6.18711104 4.21475669,6.38628619 C4.2789059,5.74489552 4.41266395,5.09655457 4.59819934,4.45356123 C4.7565121,3.90491095 4.9168742,3.47666175 5.03145241,3.21622942 L6.28744141,0.361409634 L7.19955727,3.34395033 C7.24870811,3.50466937 7.52183812,3.79946337 8.03392872,4.14444343 C8.53502995,4.48202027 9.21076803,4.83290218 10.038763,5.1884504 C11.4322943,4.77858984 12.8983966,4.56716446 14.3955975,4.56716446 Z M3.33809798,15.0947819 C3.02873709,15.5130456 2.73373595,16.1542225 2.45309455,17.0183127 C2.17245315,17.882403 2.61389475,19.0625521 3.77741934,20.5587601 L3.33809798,15.0947819 Z M25.4393214,15.0947819 L25,20.5587601 C26.1635246,19.0625521 26.6049662,17.882403 26.3243248,17.0183127 C26.0436834,16.1542225 25.7486823,15.5130456 25.4393214,15.0947819 Z" id="Combined-Shape" fill="#2a2a33"></path>
                        <path d="M19.8671625,26.3402409 C20.5454546,26.3402409 21.4400308,25.6693223 22.3437018,24.4913106 C22.6967228,24.031118 23.0227361,23.5325249 23.3112957,23.0336041 C23.4122516,22.8590508 23.5009304,22.6976198 23.5762771,22.5539488 C23.6198373,22.4708883 23.6481801,22.4145261 23.660315,22.3894535 L25.8614396,22.8941175 C25.8614396,23.2316138 25.8457086,24.4297203 25.825325,25.3420915 C25.7868214,27.0655186 25.7545626,27.7718956 25.6412679,28.10265 C24.3507163,31.8716171 21.3577455,34.633246 17.3483873,35.5834322 C16.4749859,35.7903088 15.5479204,35.9079378 14.2002382,35.9079378 C12.852516,35.9079378 11.924788,35.7902542 11.0514792,35.5833996 C7.14825147,34.6583655 4.55223583,32.0283437 3.20758583,28.1013835 C3.12542596,27.8605336 3.08660815,27.3806428 3.05689564,26.3559096 C3.04531846,25.9566328 3.03512365,25.4746385 3.02428592,24.8918371 C3.00420828,23.8121568 2.98831918,22.3719538 2.98831918,22.0022807 L5.24886981,21.645593 C5.25926079,21.6777002 5.2828365,21.7471537 5.31906019,21.848474 C5.38125864,22.0224475 5.45509592,22.2175942 5.53997409,22.4283697 C5.78209877,23.0296311 6.06189055,23.6301156 6.37242554,24.1838349 C7.14638626,25.5638951 7.9500462,26.3402409 8.53284171,26.3402409 L19.8671625,26.3402409 Z M19.8671625,28.6570726 L8.53284171,28.6570726 C7.31727345,28.6570726 6.29047219,27.9990867 5.38237478,26.8716481 C5.38985639,27.1610221 5.39608243,27.3408816 5.39991325,27.352112 C6.50028854,30.5656824 8.50789172,32.5995838 11.5856135,33.3289796 C12.2905997,33.4959648 13.0406217,33.5911061 14.2002382,33.5911061 C15.3597867,33.5911061 16.1091552,33.4960239 16.814253,33.3290122 C20.0143336,32.5706184 22.3732918,30.4128805 23.4223892,27.429865 C23.4249236,27.4062512 23.4277169,27.3766305 23.4306071,27.3418733 C23.4409631,27.2173322 23.4512841,27.0433513 23.4611562,26.8271786 C23.4621972,26.8043847 23.4632312,26.7811707 23.4642583,26.7575434 C22.3627764,27.9484238 21.18053,28.6570726 19.8671625,28.6570726 Z" id="Fill-42" fill="#2a2a33"></path>
                        <path d="M12.2881975,38.5836724 L10.6578723,38.5836724 C6.31599351,38.5836724 2.85001018,41.6435756 2.85001018,45.341031 L2.85001018,49.0906084 C2.85001018,49.3367862 3.14665019,49.5986714 3.5792318,49.5986714 L24.3432439,49.5986714 C24.7758255,49.5986714 25.0724655,49.3367862 25.0724655,49.0906084 L25.0724655,45.341031 C25.0724655,41.6435756 21.6064822,38.5836724 17.2646034,38.5836724 L15.6342782,38.5836724 L15.6342782,36.912679 L12.2881975,36.912679 L12.2881975,38.5836724 Z M9.9713658,34.5958473 L17.9511099,34.5958473 L17.9511099,36.2874095 C23.1968252,36.6027072 27.3892972,40.5045492 27.3892972,45.341031 L27.3892972,49.0906084 C27.3892972,50.6850565 25.9955579,51.915503 24.3432439,51.915503 L3.5792318,51.915503 C1.92691782,51.915503 0.533178499,50.6850565 0.533178499,49.0906084 L0.533178499,45.341031 C0.533178499,40.5045492 4.72565055,36.6027072 9.9713658,36.2874095 L9.9713658,34.5958473 Z" id="Combined-Shape" fill="#2a2a33"></path>
                        <path d="M5.32746983,21.1410489 L5.32746983,25.9426602 C5.49873921,27.4195489 5.8198389,28.3544568 6.29076894,28.7473838 C6.76169896,29.1403107 8.96422975,29.5171679 12.8983614,29.8779552 C18.5819989,29.2337845 21.7860679,28.7268438 22.5105684,28.3571328 C23.2350689,27.9874218 23.5629584,26.9598988 23.4942369,25.2745637 L23.4365156,21.1410489 L5.32746983,21.1410489 Z" id="Path-2" fill="#F7F7F7"></path>
                        <path d="M8.67481453,24.2560356 C8.15607722,24.0229711 7.92449364,23.4135153 8.15755813,22.894778 C8.39062263,22.3760407 9.00007841,22.1444571 9.51881572,22.3775216 C10.1301996,22.6522114 10.5697767,22.7809728 10.7829252,22.7809728 C10.9960736,22.7809728 11.4356507,22.6522114 12.0470346,22.3775216 C12.5657719,22.1444571 13.1752277,22.3760407 13.4082922,22.894778 C13.6413566,23.4135153 13.4097731,24.0229711 12.8910358,24.2560356 C12.0367141,24.6398754 11.3522179,24.8403788 10.7829252,24.8403788 C10.2136324,24.8403788 9.52913615,24.6398754 8.67481453,24.2560356 Z" id="Path-3" fill="#85daf9"></path>
                        <path d="M16.3338432,24.2560356 C15.8151059,24.0229711 15.5835223,23.4135153 15.8165868,22.894778 C16.0496513,22.3760407 16.6591071,22.1444571 17.1778444,22.3775216 C17.7892283,22.6522114 18.2288054,22.7809728 18.4419538,22.7809728 C18.6551023,22.7809728 19.0946793,22.6522114 19.7060632,22.3775216 C20.2248005,22.1444571 20.8342563,22.3760407 21.0673208,22.894778 C21.3003853,23.4135153 21.0688017,24.0229711 20.5500644,24.2560356 C19.6957428,24.6398754 19.0112466,24.8403788 18.4419538,24.8403788 C17.8726611,24.8403788 17.1881648,24.6398754 16.3338432,24.2560356 Z" id="Path-3-Copy" fill="#85daf9"></path>
                    </g>
                </g>
            </g>
        </g>
    </g>
</svg>