<svg xmlns="http://www.w3.org/2000/svg" xmlns:xlink="http://www.w3.org/1999/xlink" width="21" height="22" viewBox="0 0 21 22"><defs><path id="ffnma" d="M751 478.18c0-5.799 4.701-10.5 10.5-10.5s10.5 4.701 10.5 10.5-4.701 10.5-10.5 10.5-10.5-4.701-10.5-10.5z"/><path id="ffnmb" d="M765.749 480.75a.458.458 0 0 1-.453.463h-7.592a.458.458 0 0 1-.453-.462v-5.22c0-.05.01-.099.026-.145l3.974 3.604a.37.37 0 0 0 .249.096.37.37 0 0 0 .248-.097c.011-.009.024-.012.035-.022l3.955-3.533c.007.032.01.064.01.098zm-4.243-2.55l-3.446-3.13h6.944zm4.582-3.589a.37.37 0 0 0-.085-.071 1.175 1.175 0 0 0-.707-.24h-7.592c-.664 0-1.204.553-1.204 1.232v5.228c0 .68.54 1.232 1.204 1.232h7.592c.664 0 1.204-.553 1.204-1.232v-5.228c0-.368-.162-.695-.412-.92z"/></defs><g><g transform="translate(-751 -467)"><use fill="#a46cd5" xlink:href="#ffnma"/></g><g transform="translate(-751 -467)"><use fill="#fff" xlink:href="#ffnmb"/></g></g></svg>