<svg xmlns="http://www.w3.org/2000/svg" width="22" height="21" viewBox="0 0 22 21"><g><g><path fill="#11e09d" d="M17.597 15.572h-1.27c-1.737 0-3.348-.735-4.41-1.967l-.167.022c-.31.662-.593 1.157-.944 1.638l.013.133a8.133 8.133 0 0 0 5.508 2.116h1.27l-2.005 1.829c-.426.387-.426.978 0 1.366.194.177.496.288.735.288.24 0 .542-.11.736-.288l3.818-3.483c.425-.387.425-.978 0-1.366l-3.818-3.483a1.085 1.085 0 0 0-1.471 0c-.426.388-.426.979 0 1.367zM2.964 5.324c1.737 0 3.348.735 4.41 1.968l.167-.023c.31-.661.593-1.156.944-1.638L8.472 5.5a8.133 8.133 0 0 0-5.508-2.116h-1.91c-.625 0-1.054.39-1.054.97s.429.971 1.055.971zm12.628 1.829c-.426.388-.426.979 0 1.367.194.177.496.287.735.287.24 0 .542-.11.736-.287l3.818-3.483c.425-.388.425-.979 0-1.367L17.063.187a1.085 1.085 0 0 0-1.471 0c-.426.388-.426.98 0 1.367l2.005 1.829h-1.27c-2.077 0-4.022.76-5.508 2.116-.404.368-.678.706-1.254 1.495-.64 1.164-.974 2.298-.974 3.454 0 1.156-.44 2.271-1.216 3.156-1.063 1.233-2.674 1.968-4.411 1.968h-1.91c-.625 0-1.054.391-1.054.971s.429.97 1.055.97h1.909c2.077 0 4.022-.76 5.508-2.115.404-.369.678-.706 1.254-1.495.64-1.164.974-2.298.974-3.455 0-1.155.44-2.27 1.217-3.156 1.062-1.233 2.673-1.968 4.41-1.968h1.27z"/></g></g></svg>