<svg xmlns="http://www.w3.org/2000/svg" width="45" height="37" viewBox="0 0 45 37"><g><g><g><path fill="#2a2a33" d="M42.562 7.37v26.628l-.139.14H8.62v2.54h33.803c1.486 0 2.69-1.2 2.69-2.68V7.37z"/></g><g><path fill="#2a2a33" d="M2.83 2.86h33.942L36.91 3v25.358l-.14.139H2.83l-.139-.139V3zm36.632 25.497V3A2.684 2.684 0 0 0 36.772.32H2.83C1.344.32.14 1.52.14 2.999v25.358a2.684 2.684 0 0 0 2.69 2.679h33.942c1.486 0 2.69-1.2 2.69-2.679z"/></g><g><path fill="#85daf9" d="M22.646 12.269c.748.908 1.168 2.136 1.168 3.415 0 2.67-1.793 4.844-4.018 4.844-2.226 0-4.018-2.174-4.018-4.844 0-2.67 1.792-4.844 4.018-4.844 1.071 0 2.097.515 2.85 1.429zm3.226 3.415c0-4.083-2.725-7.384-6.071-7.384-3.346 0-6.071 3.3-6.071 7.384 0 4.084 2.724 7.384 6.07 7.384 3.342-.015 6.06-3.307 6.072-7.384z"/></g></g></g></svg>