<svg xmlns="http://www.w3.org/2000/svg" xmlns:xlink="http://www.w3.org/1999/xlink" width="30" height="30" viewBox="0 0 30 30"><defs><path id="40kca" d="M873 409c0-8.284 6.716-15 15-15 8.284 0 15 6.716 15 15 0 8.284-6.716 15-15 15-8.284 0-15-6.716-15-15z"/><path id="40kcc" d="M894.6 405.192c-.45.234-.9.312-1.425.39.525-.312.9-.78 1.05-1.406-.45.313-.975.469-1.575.625a2.568 2.568 0 0 0-1.8-.781c-1.275 0-2.4 1.172-2.4 2.578 0 .234 0 .39.075.546-2.025-.078-3.9-1.093-5.1-2.655-.225.39-.3.78-.3 1.327 0 .86.45 1.64 1.125 2.11-.375 0-.75-.157-1.125-.313 0 1.25.825 2.265 1.95 2.5-.225.077-.45.077-.675.077-.15 0-.3 0-.45-.078.3 1.016 1.2 1.797 2.325 1.797-.825.703-1.875 1.093-3.075 1.093h-.6c1.125.703 2.4 1.172 3.75 1.172 4.5 0 6.975-3.905 6.975-7.264v-.312c.525-.391.975-.86 1.275-1.406z"/><clipPath id="40kcb"><use xlink:href="#40kca"/></clipPath></defs><g><g transform="translate(-873 -394)"><use fill="#59caee" xlink:href="#40kca"/></g><g clip-path="url(#40kcb)" transform="translate(-873 -394)"><use fill="#fff" xlink:href="#40kcc"/></g></g></svg>