<svg xmlns="http://www.w3.org/2000/svg" width="25" height="20" viewBox="0 0 25 20"><g><g><path fill="#11e09d" d="M17.734 7.414c1.045 0 1.989-1.396 1.989-3.146 0-1.565-.732-2.404-1.989-2.404-1.257 0-1.989.84-1.989 2.404 0 1.75.944 3.146 1.989 3.146zm1.502 3.562a.934.934 0 0 1 .066-1.315.927.927 0 0 1 1.313.066c.438.487.659.598 1.807.885 1.574.393 2.106 1.063 2.077 2.507a8.81 8.81 0 0 0-.003.198v2.224a.93.93 0 0 1-.93.932.93.93 0 0 1-.928-.932v-2.224c0-.067 0-.12.003-.237.011-.546.08-.472-.668-.66-1.487-.37-2.031-.66-2.737-1.444zm-4.39-1.25a.927.927 0 0 1 1.313-.065c.38.345.41.934.065 1.315-.706.784-1.25 1.073-2.737 1.445-.57.142-.652.195-.664.303a.93.93 0 1 1-1.847-.202c.108-.99.765-1.586 2.062-1.91 1.148-.287 1.37-.398 1.808-.885zm2.893-.448c-2.173 0-3.852-2.256-3.852-5.01C13.887 1.691 15.431 0 17.74 0s3.852 1.69 3.852 4.268c0 2.755-1.679 5.01-3.852 5.01zm-9.464 4.664a.934.934 0 0 1 .066-1.316.927.927 0 0 1 1.313.066c.439.487.66.599 1.807.886 1.575.393 2.107 1.063 2.077 2.506a8.81 8.81 0 0 0-.003.199v2.224a.93.93 0 0 1-.929.932.93.93 0 0 1-.929-.932v-2.224c0-.068.001-.12.004-.237.01-.547.08-.473-.668-.66-1.487-.371-2.032-.66-2.738-1.444zm-3.077-1.316c.38.345.41.934.066 1.316-.706.784-1.25 1.073-2.737 1.444-.749.187-.68.113-.668.66l.003.237v2.224a.93.93 0 0 1-.93.932.93.93 0 0 1-.928-.932v-2.224c0-.052 0-.092-.003-.199-.03-1.443.502-2.113 2.077-2.506 1.148-.287 1.369-.399 1.807-.886a.927.927 0 0 1 1.313-.066zm1.58-2.253c1.048 0 1.994-1.396 1.994-3.146 0-1.565-.733-2.404-1.993-2.404-1.26 0-1.994.839-1.994 2.404 0 1.75.946 3.146 1.994 3.146zm0 1.864c-2.173 0-3.851-2.256-3.851-5.01 0-2.578 1.544-4.268 3.852-4.268 2.307 0 3.851 1.69 3.851 4.268 0 2.754-1.678 5.01-3.851 5.01z"/></g></g></svg>