<?xml version="1.0" encoding="UTF-8"?>
<svg width="121px" height="29px" viewBox="0 0 121 29" version="1.1" xmlns="http://www.w3.org/2000/svg" xmlns:xlink="http://www.w3.org/1999/xlink">
    <!-- Generator: Sketch 51.3 (57544) - http://www.bohemiancoding.com/sketch -->
    <title>VAVE</title>
    <desc>Created with Sketch.</desc>
    <defs>
        <path d="M96.796875,10 L111.234375,10 C112.140467,10 112.875,10.7345328 112.875,11.640625 C112.875,12.5467172 112.140467,13.28125 111.234375,13.28125 L96.796875,13.28125 C95.8907828,13.28125 95.15625,12.5467172 95.15625,11.640625 C95.15625,10.7345328 95.8907828,10 96.796875,10 Z M96.796875,18.859375 L101.390625,18.859375 C102.296717,18.859375 103.03125,19.5939078 103.03125,20.5 C103.03125,21.4060922 102.296717,22.140625 101.390625,22.140625 L96.796875,22.140625 C95.8907828,22.140625 95.15625,21.4060922 95.15625,20.5 C95.15625,19.5939078 95.8907828,18.859375 96.796875,18.859375 Z M96.796875,27.71875 L111.234375,27.71875 C112.140467,27.71875 112.875,28.4532828 112.875,29.359375 C112.875,30.2654672 112.140467,31 111.234375,31 L96.796875,31 C95.8907828,31 95.15625,30.2654672 95.15625,29.359375 C95.15625,28.4532828 95.8907828,27.71875 96.796875,27.71875 Z M76.0591228,20.8205276 L76.5920809,19.84375 L81.4764686,11.056885 L81.5062459,10.9961395 C81.7626051,10.3968369 82.3525315,10 83.015625,10 C83.0786583,10 83.1411186,10.0035243 83.2200109,10.0125381 C84.0358699,10.1135023 84.65625,10.8104466 84.65625,11.640625 C84.65625,11.9483931 84.5719985,12.2421515 84.4148413,12.4978951 L74.6608572,30.0523504 C74.3714468,30.6393945 73.8042159,31 73.171875,31 C72.5498301,31 71.9903687,30.6511528 71.7111291,30.107347 L61.9349323,12.5087958 C61.9020208,12.4535129 61.882501,12.4183799 61.8458176,12.3483832 C61.7468945,12.1482958 61.6875,11.8991848 61.6875,11.640625 C61.6875,10.7345328 62.4220328,10 63.328125,10 C63.9836346,10 64.5680376,10.3877488 64.8290946,10.9768269 L71.4524926,22.8927371 L71.5330128,23.0373769 C71.9178562,23.7985391 72.4727208,24.2519847 73.1802386,24.2519847 C73.8897885,24.2519847 74.4428812,23.796091 74.8328308,23.0097224 L76.0591228,20.8205276 Z M42.328125,27.71875 C43.2342172,27.71875 43.96875,28.4532828 43.96875,29.359375 C43.96875,30.2654672 43.2342172,31 42.328125,31 C41.4220328,31 40.6875,30.2654672 40.6875,29.359375 C40.6875,28.4532828 41.4220328,27.71875 42.328125,27.71875 Z M39.8154175,19.5301461 L33.9853446,30.0231731 C33.7242876,30.6122512 33.1398846,31 32.484375,31 C31.5782828,31 30.84375,30.2654672 30.84375,29.359375 C30.84375,29.1008152 30.9031445,28.8517042 31.0020676,28.6516168 C31.038751,28.5816201 31.0582708,28.5464871 31.0911823,28.4912042 L40.8673791,10.892653 C41.1466187,10.3488472 41.7060801,10 42.328125,10 C42.9604659,10 43.5276968,10.3606055 43.8171072,10.9476496 L53.5710913,28.5021049 C53.7282485,28.7578485 53.8125,29.0516069 53.8125,29.359375 C53.8125,30.2654672 53.0779672,31 52.171875,31 C51.5087815,31 50.9188551,30.6031631 50.6624959,30.0038605 L50.6327186,29.943115 L45.2063025,20.1811574 L44.8439503,19.5298967 L44.0164054,18.0445543 C43.6123182,17.2216165 43.056554,16.744992 42.3399334,16.744992 C41.6203348,16.744992 41.0673904,17.22519 40.6956966,18.0092904 L40.0223982,19.1927524 L39.8154175,19.5301461 Z M14.3716228,20.8205276 L14.9045809,19.84375 L19.7889686,11.056885 L19.8187459,10.9961395 C20.0751051,10.3968369 20.6650315,10 21.328125,10 C21.3911583,10 21.4536186,10.0035243 21.5325109,10.0125381 C22.3483699,10.1135023 22.96875,10.8104466 22.96875,11.640625 C22.96875,11.9483931 22.8844985,12.2421515 22.7273413,12.4978951 L12.9733572,30.0523504 C12.6839468,30.6393945 12.1167159,31 11.484375,31 C10.8623301,31 10.3028687,30.6511528 10.0236291,30.107347 L0.247432292,12.5087958 C0.214520829,12.4535129 0.195001012,12.4183799 0.1583176,12.3483832 C0.059394547,12.1482958 0,11.8991848 0,11.640625 C0,10.7345328 0.734532832,10 1.640625,10 C2.29613458,10 2.8805376,10.3877488 3.14159459,10.9768269 L9.76499257,22.8927371 L9.84551278,23.0373769 C10.2303562,23.7985391 10.7852208,24.2519847 11.4927386,24.2519847 C12.2022885,24.2519847 12.7553812,23.796091 13.1453308,23.0097224 L14.3716228,20.8205276 Z" id="path-1"></path>
        <filter x="-6.2%" y="-23.8%" width="112.4%" height="166.7%" filterUnits="objectBoundingBox" id="filter-2">
            <feOffset dx="0" dy="2" in="SourceAlpha" result="shadowOffsetOuter1"></feOffset>
            <feGaussianBlur stdDeviation="2" in="shadowOffsetOuter1" result="shadowBlurOuter1"></feGaussianBlur>
            <feColorMatrix values="0 0 0 0 0   0 0 0 0 0   0 0 0 0 0  0 0 0 0.1 0" type="matrix" in="shadowBlurOuter1"></feColorMatrix>
        </filter>
    </defs>
    <g id="FULL-FLOW" stroke="none" stroke-width="1" fill="none" fill-rule="evenodd">
        <g id="01_HOME_01" transform="translate(-26.000000, -28.000000)" fill-rule="nonzero">
            <g id="TOP">
                <g transform="translate(30.000000, 20.000000)" id="VAVE">
                    <g>
                        <use fill="black" fill-opacity="1" filter="url(#filter-2)" xlink:href="#path-1"></use>
                        <use fill="#3b3b3b" xlink:href="#path-1"></use>
                    </g>
                </g>
            </g>
        </g>
    </g>
</svg>