<svg xmlns="http://www.w3.org/2000/svg" width="49" height="41" viewBox="0 0 49 41"><g><g><g><path fill="#2a2a33" d="M48.74 20.183a20.112 20.112 0 0 1-5.88 14.232V30.41a17.5 17.5 0 0 0 3.276-10.227A17.5 17.5 0 0 0 42.86 9.956V5.951a20.112 20.112 0 0 1 5.88 14.232z"/></g><g><path fill="#2a2a33" d="M38.034 20.5c0 9.713-7.86 17.574-17.575 17.574-9.714 0-17.575-7.86-17.575-17.575 0-9.714 7.861-17.575 17.575-17.575 9.714 0 17.575 7.861 17.575 17.575zM.28 20.5c0 11.135 9.043 20.178 20.18 20.178 11.135 0 20.178-9.043 20.178-20.179S31.595.32 20.46.32.28 9.363.28 20.5z"/></g><g><path fill="#85daf9" d="M25.584 18l-.09-.033a32.564 32.564 0 0 1-.316-.117 7.638 7.638 0 0 1-.576-.243 3.73 3.73 0 0 1-1.02-.691 2.667 2.667 0 0 1-.75-1.26c-.143-.567-.083-1.171.17-1.77.167-.392.386-.734.763-1.19.346-.419.461-.564.598-.753l.028-.04c.152-.216.246-.413.275-.573a.735.735 0 0 0-.066-.447.725.725 0 0 0-.308-.311c-1.008-.482-.637-2.03.488-2.052.181 0 .331.033.502.113.54.27.974.714 1.26 1.286.278.555.369 1.188.26 1.8a3.573 3.573 0 0 1-.613 1.429c-.09.126-.188.253-.306.397l-.213.253-.23.27c-.224.274-.363.483-.44.663-.064.15-.086.303-.064.393a.58.58 0 0 0 .16.243c.1.098.25.196.445.29.117.055.249.108.46.186l.075.027.199.071.297.111c.246.096.451.187.645.286.368.19.704.415 1.155.778l.21.17.171.14.058.047c.516.415.843.622 1.155.73.068.024.15.047.287.08.413.103.454.114.53.135l.083.024.166.057c.299.103.55.231.777.396.22.159.366.344.523.655l.082.168c.23.477.265 1.028.104 1.552-.169.557-.357.88-.68 1.15-.534.45-1.188.686-2.077.756-.201.015-.345.022-.723.032-.425.01-.587.021-.761.048-.176.029-.33.074-.443.128a.607.607 0 0 0-.216.167 1.46 1.46 0 0 0-.15.346c-.025.07-.047.139-.115.35-.092.29-.175.492-.287.697a2.347 2.347 0 0 1-.638.76 2.3 2.3 0 0 1-.283.186c-.231.128-.355.174-.798.301a2.116 2.116 0 0 0-.347.117.336.336 0 0 0-.058.117c-.023.078-.03.181-.03.474 0 .57.228 1.19.64 1.74.384.51.925.906 1.522 1.113.576.202.857.794.662 1.37a1.054 1.054 0 0 1-1.374.672 5.42 5.42 0 0 1-2.54-1.857c-.694-.929-1.072-1.977-1.072-2.99 0-.573.024-.814.118-1.13.147-.51.43-.933.821-1.228.09-.068.183-.129.283-.183.23-.128.364-.177.794-.296.196-.055.322-.102.35-.124a.468.468 0 0 0 .053-.08c.036-.065.075-.163.125-.32.219-.697.225-.714.376-.993a2.714 2.714 0 0 1 1.207-1.148 3.672 3.672 0 0 1 1.056-.323c.324-.051.562-.068 1.142-.082.276-.007.386-.012.514-.022.36-.028.581-.103.761-.255a.463.463 0 0 0 .095-.108.68.68 0 0 0-.222-.115l-.036-.013-.036-.011a5.217 5.217 0 0 0-.206-.062c-.34-.094-.385-.107-.456-.128a4.446 4.446 0 0 1-.242-.081c-.587-.205-1.054-.49-1.8-1.09l-.042-.035-.158-.128-.12-.097-.061-.05a10.04 10.04 0 0 0-.353-.272 3.707 3.707 0 0 0-.494-.313 4.61 4.61 0 0 0-.527-.22l-.108-.04z"/></g><g><path fill="#85daf9" d="M15.697 22.956h.157c.173.004.328.029.558.09.354.095.679.278.95.537.242.229.435.509.568.824.187.44.245.813.245 1.556v4.33c0 .347.01.533.038.688.03.164.084.304.154.403.06.088.147.163.235.204.046.02.19.035.418.035a1.06 1.06 0 0 1 1.083 1.075 1.057 1.057 0 0 1-1.083 1.078c-.647 0-.94-.048-1.323-.224a2.763 2.763 0 0 1-1.11-.938 3.19 3.19 0 0 1-.499-1.242c-.058-.315-.073-.55-.073-1.078v-4.331c0-.368-.025-.597-.073-.71a.309.309 0 0 0-.067-.103c-.071-.027-.083-.03-.085-.03l-.148-.002c-.62-.004-.987-.06-1.309-.206a2.031 2.031 0 0 1-1.01-1.019c-.149-.333-.197-.61-.197-1.106V21.15c0-.171-.01-.3-.023-.332a.17.17 0 0 0-.057-.057c-.055-.035-.169-.079-.44-.167a3.044 3.044 0 0 1-.616-.252 2.104 2.104 0 0 1-.472-.353 2.102 2.102 0 0 1-.355-.475 3.045 3.045 0 0 1-.249-.613c-.088-.272-.132-.384-.169-.442a.165.165 0 0 0-.054-.054 1.473 1.473 0 0 0-.333-.024h-.962c-.62 0-1.082-.471-1.076-1.086a1.06 1.06 0 0 1 1.076-1.075h.963c.525 0 .8.043 1.138.18.438.176.814.491 1.07.896.176.273.23.401.403.938.03.092.088.237.08.23-.011-.012.144.05.22.075.53.169.67.228.946.406.4.252.715.628.891 1.066.138.34.182.62.182 1.14v1.636a4.368 4.368 0 0 0 .002.15c.095.009.25.018.368.02h.038z"/></g></g></g></svg>